<svg width="112" height="25" viewBox="0 0 112 25" fill="none" xmlns="http://www.w3.org/2000/svg">
<path d="M98.2334 8.63017H98.1434C97.9091 8.6328 97.6852 8.72773 97.5205 8.89435C97.3558 9.06098 97.2634 9.28585 97.2634 9.52017V18.3202C97.2634 18.5562 97.3571 18.7826 97.524 18.9495C97.691 19.1164 97.9173 19.2102 98.1534 19.2102C98.3894 19.2102 98.6158 19.1164 98.7827 18.9495C98.9496 18.7826 99.0434 18.5562 99.0434 18.3202V9.51017C99.0418 9.28908 98.958 9.0765 98.8082 8.91383C98.6585 8.75116 98.4536 8.65004 98.2334 8.63017ZM88.5034 9.51017C88.5013 9.3266 88.4418 9.14828 88.3334 9.00017C88.2854 8.92576 88.2203 8.86401 88.1434 8.82017H88.0734C87.9388 8.74005 87.7852 8.69731 87.6286 8.69636C87.472 8.69541 87.3179 8.73629 87.1824 8.81477C87.0468 8.89325 86.9346 9.0065 86.8575 9.14281C86.7803 9.27911 86.7409 9.43355 86.7434 9.59017V10.4402C86.3939 9.85432 85.8924 9.37395 85.2921 9.05001C84.6917 8.72607 84.0149 8.57063 83.3334 8.60017C82.6379 8.5853 81.9474 8.72053 81.3089 8.99664C80.6704 9.27275 80.0989 9.68325 79.6334 10.2002C78.6346 11.2885 78.1 12.7237 78.1434 14.2002C78.1142 15.5081 78.5989 16.7754 79.4934 17.7302C79.9363 18.2096 80.4773 18.5882 81.0794 18.8401C81.6816 19.092 82.331 19.2114 82.9834 19.1902C83.7246 19.2396 84.4646 19.078 85.1177 18.724C85.7708 18.37 86.3102 17.8382 86.6734 17.1902V17.4102V18.2802C86.6759 18.5137 86.7691 18.7371 86.9333 18.9032C87.0975 19.0693 87.3199 19.165 87.5534 19.1702H87.6134C87.8424 19.1599 88.0586 19.0616 88.217 18.8958C88.3753 18.73 88.4636 18.5094 88.4634 18.2802V9.92017C88.4634 9.92017 88.4634 9.92017 88.4634 9.85017L88.5034 9.51017ZM85.7334 16.5102C85.4127 16.8407 85.0263 17.1004 84.5992 17.2726C84.1721 17.4448 83.7136 17.5258 83.2534 17.5102C82.8306 17.5107 82.4125 17.4219 82.0265 17.2496C81.6405 17.0773 81.2952 16.8253 81.0134 16.5102C80.7058 16.1828 80.4661 15.7978 80.3082 15.3772C80.1503 14.9567 80.0773 14.5091 80.0934 14.0602C80.0555 13.0435 80.3897 12.048 81.0334 11.2602C81.3168 10.9108 81.6751 10.6296 82.0819 10.4375C82.4887 10.2453 82.9335 10.1471 83.3834 10.1502C83.8195 10.1487 84.2512 10.2367 84.652 10.4087C85.0527 10.5807 85.414 10.8331 85.7134 11.1502C86.0549 11.5086 86.3197 11.9328 86.4917 12.3971C86.6636 12.8613 86.7391 13.3558 86.7134 13.8502C86.7429 14.3433 86.6712 14.8372 86.5026 15.3015C86.3341 15.7659 86.0723 16.1908 85.7334 16.5502V16.5102ZM106.083 8.58017C105.03 8.56636 103.997 8.86534 103.114 9.43923C102.231 10.0131 101.539 10.8361 101.124 11.804C100.709 12.7719 100.591 13.8411 100.784 14.8762C100.977 15.9113 101.473 16.8658 102.21 17.6188C102.946 18.3717 103.889 18.8893 104.919 19.1059C105.95 19.3226 107.021 19.2285 107.998 18.8356C108.975 18.4428 109.814 17.7689 110.407 16.8992C111.001 16.0295 111.323 15.0031 111.333 13.9502C111.337 13.2555 111.204 12.5668 110.942 11.9235C110.68 11.2802 110.294 10.6948 109.805 10.2008C109.317 9.70675 108.736 9.31379 108.095 9.04431C107.455 8.77482 106.768 8.6341 106.073 8.63017L106.083 8.58017ZM107.643 17.0402C107.161 17.2903 106.626 17.4206 106.083 17.4202C105.355 17.4152 104.647 17.1805 104.06 16.7496C103.473 16.3187 103.036 15.7135 102.813 15.0202C102.655 14.5171 102.611 13.9852 102.684 13.4629C102.756 12.9407 102.944 12.441 103.233 12.0002C103.569 11.496 104.033 11.0901 104.578 10.8241C105.122 10.5581 105.728 10.4416 106.332 10.4863C106.936 10.5311 107.518 10.7356 108.017 11.0789C108.516 11.4222 108.915 11.892 109.173 12.4402C109.579 13.2688 109.646 14.2229 109.361 15.1002C109.075 15.9775 108.459 16.7092 107.643 17.1402V17.0402ZM33.7034 8.63017C32.6487 8.61828 31.6143 8.92015 30.7316 9.49744C29.8488 10.0747 29.1576 10.9014 28.7458 11.8724C28.3339 12.8434 28.2199 13.9149 28.4184 14.9508C28.6168 15.9867 29.1187 16.9402 29.8603 17.6902C30.6019 18.4403 31.5496 18.9529 32.5832 19.1631C33.6168 19.3733 34.6895 19.2715 35.6651 18.8707C36.6408 18.4699 37.4752 17.7881 38.0625 16.9119C38.6497 16.0358 38.9633 15.0049 38.9634 13.9502C38.9673 13.2555 38.8344 12.5668 38.5722 11.9235C38.31 11.2802 37.9236 10.6948 37.4352 10.2008C36.9468 9.70675 36.3658 9.31379 35.7255 9.04431C35.0852 8.77482 34.3981 8.6341 33.7034 8.63017ZM35.2634 17.0902C34.7814 17.3403 34.2463 17.4706 33.7034 17.4702C32.9751 17.4652 32.2669 17.2305 31.6798 16.7996C31.0927 16.3687 30.6565 15.7635 30.4334 15.0702C30.2689 14.5591 30.2222 14.0175 30.2967 13.4859C30.3711 12.9543 30.5649 12.4464 30.8634 12.0002C31.1994 11.496 31.6634 11.0901 32.2078 10.8241C32.7522 10.5581 33.3575 10.4416 33.9618 10.4863C34.5661 10.5311 35.1476 10.7356 35.6469 11.0789C36.1462 11.4222 36.5453 11.892 36.8034 12.4402C37.2091 13.2688 37.2763 14.2229 36.9907 15.1002C36.7051 15.9775 36.0892 16.7092 35.2734 17.1402L35.2634 17.0902ZM45.6234 8.56017C44.9467 8.57088 44.2886 8.78327 43.7334 9.17017C43.1229 9.59272 42.6389 10.1735 42.3334 10.8502V9.51017C42.3318 9.28908 42.248 9.0765 42.0982 8.91383C41.9485 8.75116 41.7436 8.65004 41.5234 8.63017H41.4334C41.1991 8.6328 40.9753 8.72773 40.8105 8.89435C40.6458 9.06098 40.5534 9.28585 40.5534 9.52017V18.3202C40.5534 18.5562 40.6471 18.7826 40.814 18.9495C40.981 19.1164 41.2073 19.2102 41.4434 19.2102C41.6794 19.2102 41.9058 19.1164 42.0727 18.9495C42.2396 18.7826 42.3334 18.5562 42.3334 18.3202V14.3202C42.2966 13.3103 42.6151 12.3195 43.2334 11.5202C43.4833 11.1785 43.8097 10.9002 44.1865 10.7074C44.5634 10.5147 44.9801 10.4129 45.4034 10.4102H45.8334C45.9514 10.4189 46.0698 10.3999 46.1792 10.3547C46.2885 10.3096 46.3859 10.2396 46.4634 10.1502C46.6111 9.96624 46.689 9.736 46.6834 9.50017C46.67 8.8735 46.3167 8.56017 45.6234 8.56017ZM72.6234 8.56017C71.8515 8.55443 71.0921 8.75464 70.4234 9.14017C69.7916 9.49021 69.2926 10.0384 69.0034 10.7002V9.51017C69.0018 9.28908 68.918 9.0765 68.7682 8.91383C68.6185 8.75116 68.4136 8.65004 68.1934 8.63017H68.0734C67.8478 8.64285 67.6355 8.74083 67.4795 8.90424C67.3236 9.06766 67.2356 9.28427 67.2334 9.51017V18.3102C67.2334 18.5462 67.3271 18.7726 67.494 18.9395C67.661 19.1064 67.8873 19.2002 68.1234 19.2002C68.3594 19.2002 68.5858 19.1064 68.7527 18.9395C68.9196 18.7726 69.0134 18.5462 69.0134 18.3102V14.5402C69.011 14.1058 69.0344 13.6717 69.0834 13.2402C69.1252 12.8457 69.209 12.4569 69.3334 12.0802C69.4484 11.7136 69.6354 11.3736 69.8834 11.0802C70.1414 10.7998 70.4593 10.581 70.8134 10.4402C71.2552 10.2643 71.728 10.1793 72.2034 10.1902C73.7967 10.1902 74.6067 11.2902 74.6334 13.4902C74.6334 14.0635 74.6334 14.9002 74.6334 16.0002C74.6334 17.1002 74.6334 17.6302 74.6334 18.0002C74.6334 18.7702 74.9934 19.1402 75.5834 19.1402C76.1734 19.1402 76.4834 18.9002 76.5834 18.0002V13.0002C76.6542 11.8223 76.2993 10.6582 75.5834 9.72017C75.2221 9.30525 74.7694 8.97995 74.2609 8.76996C73.7524 8.55998 73.2021 8.47104 72.6534 8.51017L72.6234 8.56017ZM91.0234 3.38017C90.7873 3.38017 90.561 3.47394 90.3941 3.64085C90.2271 3.80775 90.1334 4.03413 90.1334 4.27017V18.3202C90.1334 18.5562 90.2271 18.7826 90.3941 18.9495C90.561 19.1164 90.7873 19.2102 91.0234 19.2102C91.2594 19.2102 91.4858 19.1164 91.6527 18.9495C91.8196 18.7826 91.9134 18.5562 91.9134 18.3202V4.23017C91.9136 4.0009 91.8253 3.78038 91.667 3.61458C91.5087 3.44877 91.2924 3.35048 91.0634 3.34017L91.0234 3.38017ZM64.7234 8.63017H64.6334C64.3991 8.6328 64.1753 8.72773 64.0105 8.89435C63.8458 9.06098 63.7534 9.28585 63.7534 9.52017V18.3202C63.7534 18.5562 63.8471 18.7826 64.014 18.9495C64.181 19.1164 64.4073 19.2102 64.6434 19.2102C64.8794 19.2102 65.1058 19.1164 65.2727 18.9495C65.4396 18.7826 65.5334 18.5562 65.5334 18.3202V9.51017C65.5318 9.28908 65.448 9.0765 65.2982 8.91383C65.1485 8.75116 64.9436 8.65004 64.7234 8.63017ZM49.3334 8.63017H49.2434C49.0091 8.6328 48.7853 8.72773 48.6205 8.89435C48.4558 9.06098 48.3634 9.28585 48.3634 9.52017V18.3202C48.3634 18.5562 48.4571 18.7826 48.6241 18.9495C48.791 19.1164 49.0173 19.2102 49.2534 19.2102C49.4894 19.2102 49.7158 19.1164 49.8827 18.9495C50.0496 18.7826 50.1434 18.5562 50.1434 18.3202V9.51017C50.1418 9.28908 50.058 9.0765 49.9082 8.91383C49.7585 8.75116 49.5536 8.65004 49.3334 8.63017ZM61.4834 8.70017C61.3482 8.64038 61.2002 8.6152 61.0529 8.6269C60.9055 8.63861 60.7634 8.68683 60.6394 8.76721C60.5153 8.84759 60.4133 8.95761 60.3424 9.08732C60.2715 9.21703 60.234 9.36236 60.2334 9.51017V10.3102C59.8789 9.76529 59.3921 9.31904 58.8186 9.01303C58.2451 8.70703 57.6034 8.55124 56.9534 8.56017C56.2579 8.5453 55.5674 8.68053 54.9289 8.95664C54.2904 9.23275 53.7189 9.64325 53.2534 10.1602C52.2519 11.2468 51.7168 12.6831 51.7634 14.1602C51.7462 15.4795 52.2449 16.7533 53.1534 17.7102C53.5911 18.1961 54.1288 18.5817 54.7294 18.8406C55.33 19.0995 55.9795 19.2256 56.6334 19.2102C57.3586 19.2183 58.0742 19.0429 58.7134 18.7002C59.33 18.3712 59.8452 17.8803 60.2034 17.2802V18.8702C60.2229 19.3609 60.1445 19.8506 59.9728 20.3107C59.8011 20.7708 59.5396 21.1922 59.2034 21.5502C58.8774 21.882 58.4858 22.1423 58.0537 22.3144C57.6215 22.4866 57.1583 22.5669 56.6934 22.5502C55.9763 22.5544 55.2657 22.415 54.6034 22.1402C54.4828 22.0959 54.3658 22.0424 54.2534 21.9802C54.1383 21.9163 54.0179 21.8628 53.8934 21.8202C53.8005 21.807 53.7062 21.807 53.6134 21.8202C53.5004 21.8201 53.3888 21.8451 53.2868 21.8936C53.1847 21.942 53.0947 22.0126 53.0234 22.1002C52.8648 22.2799 52.7761 22.5105 52.7734 22.7502C52.7734 23.1435 53.03 23.4768 53.5434 23.7502C54.5204 24.2004 55.588 24.4194 56.6634 24.3902C57.3754 24.4141 58.085 24.2946 58.7498 24.0386C59.4147 23.7826 60.0213 23.3954 60.5334 22.9002C61.0426 22.3923 61.4379 21.7818 61.693 21.1094C61.9482 20.437 62.0574 19.718 62.0134 19.0002V18.4802V16.8602C62.0134 15.6735 62.0134 13.6735 62.0134 10.8602V9.51017C62.0144 9.3406 61.9669 9.17427 61.8765 9.03077C61.7862 8.88727 61.6567 8.77257 61.5034 8.70017H61.4834ZM60.2534 14.5002C60.1629 15.2629 59.8093 15.9702 59.2534 16.5002C58.9382 16.8213 58.5613 17.0754 58.1455 17.2472C57.7296 17.4191 57.2833 17.5051 56.8334 17.5002C56.4073 17.5036 55.9853 17.4161 55.5956 17.2437C55.2059 17.0713 54.8574 16.8178 54.5734 16.5002C54.2641 16.1719 54.0234 15.7853 53.8655 15.3629C53.7075 14.9405 53.6354 14.4908 53.6534 14.0402C53.6236 13.0144 53.9806 12.015 54.6534 11.2402C54.945 10.8928 55.3115 10.616 55.7255 10.4306C56.1394 10.2453 56.59 10.1563 57.0434 10.1702C57.4785 10.1653 57.9099 10.2517 58.3095 10.424C58.7091 10.5962 59.0682 10.8504 59.3634 11.1702C59.8874 11.7425 60.2013 12.4759 60.2534 13.2502C60.2655 13.4667 60.2655 13.6837 60.2534 13.9002C60.2656 14.1 60.2656 14.3004 60.2534 14.5002ZM94.6134 17.4502C94.4393 17.4502 94.2692 17.5018 94.1245 17.5985C93.9798 17.6952 93.867 17.8326 93.8004 17.9934C93.7338 18.1542 93.7163 18.3311 93.7503 18.5019C93.7842 18.6726 93.868 18.8294 93.9911 18.9524C94.1142 19.0755 94.271 19.1593 94.4417 19.1933C94.6124 19.2272 94.7893 19.2098 94.9501 19.1432C95.1109 19.0766 95.2484 18.9638 95.3451 18.8191C95.4418 18.6744 95.4934 18.5042 95.4934 18.3302C95.4934 18.2138 95.4703 18.0985 95.4254 17.9911C95.3806 17.8837 95.3149 17.7862 95.2321 17.7044C95.1493 17.6225 95.0511 17.5579 94.9432 17.5143C94.8353 17.4706 94.7198 17.4488 94.6034 17.4502H94.6134ZM23.9634 12.7202C23.8804 12.4423 23.7483 12.1815 23.5734 11.9502C23.4837 11.8311 23.3869 11.7175 23.2834 11.6102C23.1087 11.4447 22.9177 11.2973 22.7134 11.1702L4.57337 0.540171L4.15337 0.290171C3.79488 0.103649 3.39746 0.00429345 2.99337 0.000171122C2.64548 -0.0037975 2.30026 0.0612994 1.9777 0.191691C1.65514 0.322083 1.36166 0.515179 1.11426 0.759793C0.866855 1.00441 0.670443 1.29568 0.536401 1.61674C0.40236 1.93779 0.333351 2.28226 0.333374 2.63017C0.354552 3.26205 0.574814 3.87108 0.962716 4.37032C1.35062 4.86957 1.88633 5.2335 2.49337 5.41017L3.05337 5.57017V22.3702C3.04411 22.53 3.04411 22.6903 3.05337 22.8502C3.0946 23.027 3.14806 23.2008 3.21337 23.3702C3.27051 23.5149 3.34434 23.6525 3.43337 23.7802C3.51885 23.9088 3.61592 24.0293 3.72337 24.1402C3.82608 24.2479 3.93636 24.3482 4.05337 24.4402C4.16833 24.5245 4.28857 24.6013 4.41337 24.6702L4.75337 24.8202L5.14337 24.9202H5.55337H5.61337C5.77638 24.9348 5.94037 24.9348 6.10337 24.9202C6.30507 24.8781 6.50255 24.8179 6.69337 24.7402L6.96337 24.6102H7.02337L7.33337 24.4902L7.79337 24.2302L22.3334 16.0002L22.8234 15.7102C23.0268 15.5863 23.2148 15.4386 23.3834 15.2702C23.5249 15.1214 23.6491 14.957 23.7534 14.7802C23.8638 14.5961 23.948 14.3975 24.0034 14.1902C24.0473 14.0297 24.0774 13.8658 24.0934 13.7002C24.1086 13.5405 24.1086 13.3798 24.0934 13.2202C24.063 13.0504 24.0195 12.8832 23.9634 12.7202ZM3.33337 4.77017L3.11337 4.70017L2.77337 4.61017C2.33276 4.48291 1.94237 4.2223 1.65587 3.86418C1.36937 3.50605 1.20081 3.06798 1.17337 2.61017C1.176 2.14155 1.36332 1.69287 1.6947 1.36149C2.02607 1.03012 2.47475 0.842797 2.94337 0.840171C3.21892 0.829732 3.49304 0.884555 3.74337 1.00017L4.01337 1.16017L4.15337 1.24017C7.69197 3.40531 10.548 6.52477 12.3934 10.2402L12.3334 10.2302L12.2234 10.1002L12.0034 9.84017L11.9034 9.73017L11.6434 9.46017L11.5734 9.39017L11.2634 9.09017C8.96644 7.0895 6.25993 5.61508 3.33337 4.77017ZM6.95337 23.7702L6.71337 23.9102L6.51337 24.0002C6.37418 24.0562 6.23028 24.0997 6.08337 24.1302C5.96036 24.1428 5.83638 24.1428 5.71337 24.1302H5.43337L5.16337 24.0602L4.91337 23.9502L4.69337 23.8102L4.46337 23.6002C4.38912 23.5232 4.32217 23.4395 4.26337 23.3502C4.21061 23.2721 4.16699 23.1882 4.13337 23.1002C4.085 22.9763 4.04491 22.8494 4.01337 22.7202C4.00664 22.6003 4.00664 22.4801 4.01337 22.3602V5.86017C5.23976 6.30035 6.42723 6.84223 7.56337 7.48017L7.70337 7.56017L7.97337 7.72017L8.18337 7.85017L8.34337 7.95017C8.66337 8.15017 8.98337 8.36017 9.34337 8.59017L9.68337 8.85017C10.1569 9.21554 10.6046 9.61315 11.0234 10.0402C11.3207 10.3558 11.5979 10.6898 11.8534 11.0402L11.9034 11.1102L12.1034 11.3902L12.2134 11.5502L12.3734 11.8102L12.4934 12.0302L12.6234 12.2702C12.6967 12.4168 12.7667 12.5635 12.8334 12.7102L12.9134 12.9002L13.0434 13.2302L13.1134 13.4302C13.1534 13.5502 13.19 13.6735 13.2234 13.8002L13.3334 14.0002C13.3334 14.1702 13.4134 14.3502 13.4434 14.5302C13.4434 14.7002 13.4434 14.8702 13.4434 15.0402C13.4434 15.2102 13.4434 15.1702 13.4434 15.2402C13.4434 15.3102 13.4434 15.5402 13.4434 15.6902C13.4434 15.8402 13.4434 15.8402 13.4434 15.9102C13.4434 15.9802 13.4434 16.1902 13.3634 16.3202C13.2834 16.4502 13.3634 16.4802 13.3134 16.5602C13.2634 16.6402 13.2434 16.8102 13.2134 16.9302C13.1834 17.0502 13.2134 17.1102 13.1334 17.2002C13.0534 17.2902 13.0534 17.4202 13.0134 17.5302C12.9734 17.6402 12.9434 17.7302 12.8934 17.8302L12.7734 18.0902C12.7234 18.2102 12.6634 18.3202 12.6034 18.4402L12.5034 18.6102C11.1697 20.7996 9.25094 22.5729 6.96337 23.7302L6.95337 23.7702ZM23.1634 14.0002C23.1283 14.1338 23.0744 14.2617 23.0034 14.3802C22.9331 14.5025 22.8492 14.6166 22.7534 14.7202C22.6251 14.83 22.4841 14.924 22.3334 15.0002L21.8534 15.2902L11.7634 21.0002L11.9034 20.8302L12.1834 20.4902L12.4234 20.1802L12.5934 19.9502L12.8834 19.5002L13.0134 19.2702C13.1034 19.1102 13.1934 18.9502 13.2734 18.7902L13.3634 18.6002C13.4367 18.4535 13.5034 18.3035 13.5634 18.1502L13.6334 17.9802C13.7034 17.8102 13.7634 17.6302 13.8234 17.4602V17.3102C13.8834 17.1202 13.9334 16.9202 13.9834 16.7202V16.6002C13.9834 16.3902 14.0634 16.1802 14.0934 15.9602V15.9102C14.1439 15.5289 14.1706 15.1448 14.1734 14.7602C14.1734 14.6902 14.1734 14.6202 14.1734 14.5502C14.1734 14.4802 14.1734 14.4902 14.1734 14.4502C14.1734 14.4102 14.1734 14.3302 14.1734 14.2602C14.1734 14.1902 14.1734 14.0102 14.1734 13.8902C14.1734 13.7702 14.1734 13.7902 14.1734 13.7402C14.1734 13.4268 14.13 13.1135 14.0434 12.8002V12.7302C14.0434 12.5602 13.9734 12.3802 13.9334 12.2102V12.1602C13.0458 9.11913 11.3811 6.36188 9.10337 4.16017L22.2734 11.8702C22.4201 11.9633 22.5574 12.0705 22.6834 12.1902L22.8934 12.4402C22.9492 12.5164 22.9993 12.5966 23.0434 12.6802C23.0861 12.7641 23.1229 12.851 23.1534 12.9402C23.1855 13.0583 23.2089 13.1786 23.2234 13.3002C23.2332 13.4033 23.2332 13.5071 23.2234 13.6102C23.2163 13.7418 23.1962 13.8725 23.1634 14.0002Z" fill="white"/>
</svg>
